<?xml version="1.0" encoding="utf-8"?>
<!-- Generator: Adobe Illustrator 23.0.3, SVG Export Plug-In . SVG Version: 6.00 Build 0)  -->
<svg version="1.1" id="Layer_1" xmlns="http://www.w3.org/2000/svg" xmlns:xlink="http://www.w3.org/1999/xlink" x="0px" y="0px"
	 viewBox="0 0 792 188" style="enable-background:new 0 0 792 188;" xml:space="preserve">
<style type="text/css">
	.st0{fill:none;}
</style>
<g>
	<path d="M180.94,95.2c-0.35,3.31-0.59,5.67-0.71,6.85c-0.47,3.9-3.54,5.2-6.73,5.2h-0.35c-18.43,0-29.65-1.42-42.88-19.61
		c-6.61-9.21-17.13-10.28-25.39-10.39h-9.09v4.13c0,5.2,0,6.97,16.54,7.09c4.02,0,6.38,2.36,6.38,6.38v4.37
		c0,3.54-2.72,6.14-6.38,6.14H52.78c-3.78,0-6.38-2.6-6.38-6.14v-4.37c0-4.02,2.24-6.38,6.38-6.38C69.2,88.35,69.2,85.4,69.2,80.2
		V47.72c0-5.2,0-8.03-16.54-8.27c-4.02,0-6.26-2.36-6.26-6.38v-4.25c0-3.54,2.6-6.14,6.38-6.14h64.37
		c40.04,0,56.58,11.46,56.58,27.28c0,10.98-8.39,19.84-25.87,24.33c2.83,1.89,5.55,4.13,7.79,6.38c6.97,6.97,15.59,8.15,20.43,8.5
		C180.11,89.53,181.29,91.89,180.94,95.2z M95.78,56.22c0,0.59,0,3.78,7.79,3.78h18.78c10.39,0,20.67-3.07,20.67-10.04
		c0-7.09-10.63-10.16-20.67-10.16h-18.78c-7.79,0-7.79,3.19-7.79,3.78C95.78,43.58,95.78,56.22,95.78,56.22z"/>
	<path d="M268.57,71.46c0,3.66-2.6,6.38-6.14,6.38h-56.1c2.83,9.33,12.52,13.58,21.61,13.58c10.87,0,18.43-5.91,19.72-7.09
		c1.54-1.3,4.84-3.07,8.86-0.94c1.65,0.94,2.48,1.42,4.13,2.24c2.72,1.65,3.78,4.72,1.54,7.68c-2.24,2.83-12.52,13.94-34.73,13.94
		c-34.73,0-45.95-21.02-45.95-34.84c0-20.43,16.18-34.84,43.47-34.84C251.8,37.56,268.1,51.49,268.57,71.46z M245.54,63.9
		c-3.31-8.15-11.46-12.17-19.49-12.17s-16.06,4.02-19.37,12.17H245.54z"/>
	<path d="M316.87,106.89c-14.29-1.06-23.5-5.79-29.17-10.39v2.36c0,3.66-2.6,6.38-6.14,6.38h-1.3c-4.13,0-6.38-2.36-6.38-6.38V84.57
		c0-4.13,2.24-6.38,6.38-6.38h1.3c6.73,0,9.8,10.98,31.42,13.94c14.06,1.89,21.14,0.12,21.14-3.07c0-10.16-60.24-3.07-60.24-30.71
		c0-13.35,14.88-21.85,37.8-20.43c15.12,0.83,24.21,6.38,27.52,8.74v-1.18c0-4.02,2.36-6.38,6.5-6.38h1.18
		c3.54,0,6.14,2.72,6.14,6.38v11.46c0,3.66-2.6,6.38-6.14,6.38h-1.18c-7.91,0-9.09-10.28-32.01-12.28
		c-11.81-0.95-18.43,0.35-17.72,4.61c1.54,9.68,62.6,0.12,61.3,30.95C356.44,103.58,333.41,108.19,316.87,106.89z"/>
	<path d="M449.03,71.46c0,3.66-2.6,6.38-6.14,6.38h-56.1c2.84,9.33,12.52,13.58,21.61,13.58c10.87,0,18.43-5.91,19.72-7.09
		c1.54-1.3,4.84-3.07,8.86-0.94c1.65,0.94,2.48,1.42,4.14,2.24c2.72,1.65,3.78,4.72,1.53,7.68c-2.24,2.83-12.52,13.94-34.72,13.94
		c-34.73,0-45.95-21.02-45.95-34.84c0-20.43,16.18-34.84,43.47-34.84C432.26,37.56,448.56,51.49,449.03,71.46z M426,63.9
		c-3.31-8.15-11.46-12.17-19.49-12.17s-16.06,4.02-19.37,12.17H426z"/>
	<path d="M523.32,61.77c-6.73,0-10.28-1.89-10.28-6.5c0-4.13-5.79-4.37-11.81-1.89c-6.03,2.6-9.92,7.32-9.92,12.4v17.95
		c0.12,4.25,1.42,6.85,9.33,6.85c4.01,0,6.38,2.36,6.38,6.38v2.13c0,3.54-2.72,6.14-6.38,6.14h-43.47c-3.66,0-6.38-2.6-6.38-6.14
		v-2.13c0-4.02,2.36-6.38,6.38-6.38c8.03,0,9.21-2.6,9.45-6.85V60.82c-0.24-4.37-1.42-6.97-9.45-6.97c-4.02,0-6.38-2.36-6.38-6.38
		v-2.13c0-3.54,2.72-6.14,6.38-6.14h27.99c3.54,0,6.14,2.72,6.14,6.38v1.77c4.61-5.31,12.52-9.45,22.91-9.45
		c13.11,0,19.84,7.44,19.84,16.65C534.07,59.64,530.05,61.77,523.32,61.77z"/>
	<path d="M618.98,53.86h-6.5c-4.02,0-6.38-2.36-6.38-6.38v-2.13c0-3.54,2.72-6.14,6.38-6.14h39.45c3.66,0,6.38,2.6,6.38,6.14v2.13
		c0,4.02-2.36,6.38-6.38,6.38c-6.38,0-9.33,0.35-12.52,5.32l-27.4,42.64c-2.01,2.6-2.72,3.54-5.91,3.54h-13.82
		c-2.84,0-3.43-0.71-5.67-3.54L556.96,59.3c-2.6-3.78-5.55-5.43-11.93-5.43c-4.02,0-6.38-2.36-6.38-6.38v-2.13
		c0-3.54,2.72-6.14,6.38-6.14h47.72c3.66,0,6.38,2.6,6.38,6.14v2.13c0,4.02-2.36,6.38-6.38,6.38h-7.09c-2.24,0-4.84,0.71-2.83,3.78
		c0.59,0.83,19.96,28.47,19.96,28.47s18.31-28.23,18.54-28.58C623.12,54.68,621.23,53.86,618.98,53.86z"/>
	<path d="M745.59,71.46c0,3.66-2.6,6.38-6.14,6.38h-56.1c2.84,9.33,12.52,13.58,21.61,13.58c10.87,0,18.43-5.91,19.73-7.09
		c1.53-1.3,4.84-3.07,8.86-0.94c1.65,0.94,2.48,1.42,4.14,2.24c2.72,1.65,3.78,4.72,1.53,7.68c-2.24,2.83-12.52,13.94-34.72,13.94
		c-34.73,0-45.95-21.02-45.95-34.84c0-20.43,16.18-34.84,43.47-34.84C728.82,37.56,745.12,51.49,745.59,71.46z M722.56,63.9
		c-3.31-8.15-11.46-12.17-19.49-12.17c-8.03,0-16.06,4.02-19.37,12.17H722.56z"/>
	<g>
		<path d="M126.34,131.27c1.47,0,2.57,1.05,2.57,2.47v1.71c0,1.66-0.95,2.57-2.57,2.57c-6.66,0.1-6.66,1.24-6.66,3.33v13.08
			c0,2.09,0.43,3.38,2.66,3.38c0.33,0,19.4,0,19.4,0c2.23,0,2.61-1.14,2.61-2.76c0-1.57,0.9-2.52,2.52-2.52h1.76
			c1.43,0,2.47,1.09,2.47,2.57v6.99c0,1.43-1.05,2.47-2.57,2.47h-46.17c-1.52,0-2.57-1.05-2.57-2.47v-1.76
			c0-1.62,0.9-2.52,2.57-2.52c6.61-0.09,6.61-1.28,6.61-3.38v-13.08c0-2.09,0-3.23-6.66-3.33c-1.62,0-2.52-0.9-2.52-2.57v-1.71
			c0-1.43,1.05-2.47,2.57-2.47H126.34z"/>
		<path d="M189.68,151.34c0,6.47-5.71,13.98-17.64,13.98c-11.94,0-17.59-7.51-17.59-13.98s4.56-14.08,17.59-14.08
			C185.12,137.26,189.68,144.87,189.68,151.34z M180.17,151.05c0-5.28-3.85-8.04-8.13-8.04s-8.13,2.76-8.13,8.04
			c0,5.09,3.9,7.89,8.13,7.89S180.17,156.14,180.17,151.05z"/>
		<path d="M201.95,163.84c-4.56-1.9-9.42-6.09-9.42-12.55c0-8.23,6.32-14.03,18.07-14.03c7.56,0,14.84,3.14,14.84,7.94
			c0,2.38-1.85,3.19-4.85,3.19c-3.04,0-4.66-0.76-4.66-2.66c0-1.47-2.09-2.81-5.23-2.76c-4.37,0.09-8.56,2.62-8.56,8.04
			c0,5.52,4.76,7.99,9.13,7.99c4.38,0,7.37-2.43,7.89-2.85c0.67-0.57,1.95-1.24,3.57-0.43c0.67,0.38,1.05,0.57,1.66,0.9
			c1.09,0.67,1.52,1.95,0.62,3.09c-0.9,1.14-5.52,5.47-14.46,5.61C206.99,165.37,204.38,164.79,201.95,163.84z"/>
		<path d="M268.1,161.42c-1.52,1.76-5.37,4.33-10.84,3.8c-1.57-0.14-4.09-0.95-5.61-2.38c-1.62,1.24-4.9,2.38-9.51,2.47
			c-8.75,0.19-13.31-3.71-13.6-8.56c-0.29-5.14,3.52-7.7,11.08-7.99c7.13-0.24,9.99-0.33,9.99-3.23c0-1.76-1.24-3.76-4.61-3.76
			c-2.38,0-4.37,0.81-4.37,2.8c0,1.9-1.66,2.66-4.66,2.66c-4.95,0-4.85-2.47-4.85-2.95c0-3.85,5.04-6.75,13.03-7.04
			c11.08-0.33,15.88,3.66,15.88,10.7v8.46c0,2.05,2.14,2.28,3.42,1.05l0.62-0.62c1.14-1.14,2.47-1.24,3.9,0.09l0.14,0.19
			C269.48,158.47,269.38,159.94,268.1,161.42z M250.13,157.57c-0.05-1.57-0.05-2.62-0.05-5.14c-1.28,0.52-3.33,0.76-5.14,0.9
			c-3.61,0.24-6.99,0.57-6.66,3.38c0.29,2.38,3.52,3.28,7.08,3.04C247.56,159.61,250.17,158.85,250.13,157.57z"/>
		<path d="M292.5,161.18v0.86c0,1.43-1.09,2.47-2.57,2.47h-17.5c-1.47,0-2.57-1.05-2.57-2.47v-0.86c0-1.62,0.95-2.57,2.57-2.57
			c3.19,0,3.71-1.05,3.76-2.76v-17.07c-0.05-1.71-0.57-2.76-3.76-2.76c-1.62,0-2.57-0.95-2.57-2.57v-0.86
			c0-1.43,1.09-2.47,2.57-2.47h11.27c1.43,0,2.42,1.09,2.42,2.57l0.05,23.16c0.05,1.71,0.57,2.76,3.76,2.76
			C291.55,158.61,292.5,159.56,292.5,161.18z"/>
		<path d="M363.54,142.26c0,6.32-6.9,10.94-21.68,10.94h-9.75v1.71c0,2.09,0.05,2.81,6.7,2.85c1.62,0,2.52,0.95,2.52,2.57v1.76
			c0,1.43-1.05,2.47-2.52,2.47H314.8c-1.47,0-2.57-1.05-2.57-2.47v-1.76c0-1.62,0.95-2.57,2.57-2.57c6.66-0.05,6.66-1.24,6.66-3.33
			v-13.08c0-2.09,0-3.23-6.66-3.33c-1.62,0-2.57-0.95-2.57-2.57v-1.71c0-1.43,1.09-2.47,2.57-2.47h25.92
			C356.88,131.27,363.54,135.88,363.54,142.26z M351.13,142.21c0-2.81-4.23-4.04-8.32-4.04h-7.51c-3.19,0-3.19,1.28-3.19,1.52v5.09
			c0,0.24,0,1.52,3.19,1.52h7.51C347.04,146.3,351.13,145.06,351.13,142.21z"/>
		<path d="M395.69,147.01c-2.71,0-4.14-0.76-4.14-2.62c0-1.66-2.33-1.76-4.75-0.76c-2.43,1.05-3.99,2.95-3.99,4.99v7.23
			c0.05,1.71,0.57,2.76,3.76,2.76c1.62,0,2.57,0.95,2.57,2.57v0.86c0,1.43-1.09,2.47-2.57,2.47h-17.5c-1.47,0-2.57-1.05-2.57-2.47
			v-0.86c0-1.62,0.95-2.57,2.57-2.57c3.23,0,3.71-1.05,3.8-2.76v-9.22c-0.09-1.76-0.57-2.81-3.8-2.81c-1.62,0-2.57-0.95-2.57-2.57
			v-0.86c0-1.43,1.09-2.47,2.57-2.47h11.27c1.43,0,2.47,1.09,2.47,2.57v0.71c1.85-2.14,5.04-3.8,9.23-3.8c5.28,0,7.99,3,7.99,6.7
			C400.02,146.15,398.4,147.01,395.69,147.01z"/>
		<path d="M436.54,151.34c0,6.47-5.71,13.98-17.64,13.98s-17.59-7.51-17.59-13.98s4.56-14.08,17.59-14.08
			C431.97,137.26,436.54,144.87,436.54,151.34z M427.03,151.05c0-5.28-3.85-8.04-8.13-8.04s-8.13,2.76-8.13,8.04
			c0,5.09,3.9,7.89,8.13,7.89C423.13,158.95,427.03,156.14,427.03,151.05z"/>
		<path d="M468.49,143.82h-2.62c-1.62,0-2.57-0.95-2.57-2.57v-0.86c0-1.43,1.09-2.47,2.57-2.47h15.88c1.47,0,2.57,1.05,2.57,2.47
			v0.86c0,1.62-0.95,2.57-2.57,2.57c-2.57,0-3.76,0.14-5.04,2.14l-11.03,17.17c-0.81,1.05-1.09,1.43-2.38,1.43h-5.56
			c-1.14,0-1.38-0.29-2.28-1.43l-11.94-17.12c-1.05-1.52-2.23-2.19-4.8-2.19c-1.62,0-2.57-0.95-2.57-2.57v-0.86
			c0-1.43,1.09-2.47,2.57-2.47h19.21c1.47,0,2.57,1.05,2.57,2.47v0.86c0,1.62-0.95,2.57-2.57,2.57h-2.85c-0.9,0-1.95,0.29-1.14,1.52
			c0.24,0.33,8.04,11.46,8.04,11.46s7.37-11.36,7.47-11.51C470.16,144.16,469.4,143.82,468.49,143.82z"/>
		<path d="M508.96,161.18v0.86c0,1.43-1.09,2.47-2.57,2.47h-17.5c-1.47,0-2.57-1.05-2.57-2.47v-0.86c0-1.62,0.95-2.57,2.57-2.57
			c3.19,0,3.71-1.05,3.76-2.76v-9.22c-0.05-1.76-0.57-2.81-3.76-2.81c-1.62,0-2.57-0.95-2.57-2.57v-0.86c0-1.43,1.09-2.47,2.57-2.47
			h11.27c1.43,0,2.47,1.09,2.47,2.57v15.36c0.05,1.71,0.57,2.76,3.76,2.76C508.01,158.61,508.96,159.56,508.96,161.18z
			 M490.28,131.98c0-2.52,2.85-3.76,6.32-3.76s6.32,1.24,6.32,3.76c0,2.47-2.85,3.71-6.32,3.71S490.28,134.46,490.28,131.98z"/>
		<path d="M529.36,165.18c-5.75-0.43-9.46-2.33-11.75-4.18v0.95c0,1.47-1.05,2.57-2.47,2.57h-0.52c-1.66,0-2.57-0.95-2.57-2.57
			v-5.75c0-1.66,0.9-2.57,2.57-2.57h0.52c2.71,0,3.95,4.42,12.65,5.61c5.66,0.76,8.51,0.05,8.51-1.24c0-4.09-24.25-1.24-24.25-12.36
			c0-5.37,5.99-8.8,15.22-8.23c6.09,0.33,9.75,2.57,11.08,3.52v-0.48c0-1.62,0.95-2.57,2.61-2.57h0.48c1.43,0,2.47,1.09,2.47,2.57
			v4.61c0,1.47-1.05,2.57-2.47,2.57h-0.48c-3.19,0-3.66-4.14-12.89-4.94c-4.75-0.38-7.42,0.14-7.13,1.85
			c0.62,3.9,25.2,0.05,24.68,12.46C545.29,163.84,536.02,165.7,529.36,165.18z"/>
		<path d="M571.59,161.18v0.86c0,1.43-1.09,2.47-2.57,2.47h-17.5c-1.47,0-2.57-1.05-2.57-2.47v-0.86c0-1.62,0.95-2.57,2.57-2.57
			c3.19,0,3.71-1.05,3.76-2.76v-9.22c-0.05-1.76-0.57-2.81-3.76-2.81c-1.62,0-2.57-0.95-2.57-2.57v-0.86c0-1.43,1.09-2.47,2.57-2.47
			h11.27c1.43,0,2.47,1.09,2.47,2.57v15.36c0.05,1.71,0.57,2.76,3.76,2.76C570.64,158.61,571.59,159.56,571.59,161.18z
			 M552.91,131.98c0-2.52,2.85-3.76,6.32-3.76c3.47,0,6.32,1.24,6.32,3.76c0,2.47-2.85,3.71-6.32,3.71
			C555.76,135.69,552.91,134.46,552.91,131.98z"/>
		<path d="M606.35,151.34c0,6.47-5.71,13.98-17.64,13.98s-17.59-7.51-17.59-13.98s4.56-14.08,17.59-14.08
			C601.79,137.26,606.35,144.87,606.35,151.34z M596.84,151.05c0-5.28-3.85-8.04-8.13-8.04s-8.13,2.76-8.13,8.04
			c0,5.09,3.9,7.89,8.13,7.89C592.94,158.95,596.84,156.14,596.84,151.05z"/>
		<path d="M624.28,155.86c0.05,1.76,0.57,2.81,3.76,2.81c1.66,0,2.57,0.95,2.57,2.57v0.86c0,1.43-1.05,2.47-2.57,2.47h-17.45
			c-1.52,0-2.57-1.05-2.57-2.47v-0.86c0-1.62,0.9-2.57,2.57-2.57c3.19,0,3.71-1.05,3.76-2.81v-9.27c-0.05-1.71-0.57-2.76-3.76-2.76
			c-1.66,0-2.57-0.95-2.57-2.57v-0.86c0-1.43,1.05-2.47,2.57-2.47h11.22c1.43,0,2.47,1.09,2.47,2.57v2.81
			c1.28-1.85,4.52-4.85,9.37-5.71c10.22-1.81,16.6,4.56,16.6,13.27v4.99c0.05,1.76,0.57,2.81,3.76,2.81c1.62,0,2.57,0.95,2.57,2.57
			v0.86c0,1.43-1.09,2.47-2.57,2.47h-17.5c-1.47,0-2.52-1.05-2.52-2.47v-0.86c0-1.62,0.9-2.57,2.52-2.57c3.23,0,3.76-1.05,3.8-2.81
			v-4.66c0-3.28-1.81-7.42-7.8-6.51c-5.47,0.76-8.18,5.8-8.23,8.56L624.28,155.86L624.28,155.86z"/>
		<path d="M676.97,165.18c-5.75-0.43-9.46-2.33-11.75-4.18v0.95c0,1.47-1.05,2.57-2.47,2.57h-0.52c-1.66,0-2.57-0.95-2.57-2.57
			v-5.75c0-1.66,0.9-2.57,2.57-2.57h0.52c2.71,0,3.95,4.42,12.65,5.61c5.66,0.76,8.51,0.05,8.51-1.24c0-4.09-24.25-1.24-24.25-12.36
			c0-5.37,5.99-8.8,15.22-8.23c6.09,0.33,9.75,2.57,11.08,3.52v-0.48c0-1.62,0.95-2.57,2.61-2.57h0.48c1.43,0,2.47,1.09,2.47,2.57
			v4.61c0,1.47-1.05,2.57-2.47,2.57h-0.48c-3.19,0-3.66-4.14-12.89-4.94c-4.75-0.38-7.42,0.14-7.13,1.85
			c0.62,3.9,25.2,0.05,24.68,12.46C692.9,163.84,683.63,165.7,676.97,165.18z"/>
	</g>
	<g>
		<g>
			<line class="st0" x1="73.44" y1="117.9" x2="720.32" y2="117.9"/>
		</g>
		<g>
			<rect x="73.44" y="115.56" width="646.89" height="4.69"/>
		</g>
	</g>
</g>
</svg>
